# xmcd CD database file
#
# Track frame offsets:
#	150
#	18806
#	35137
#	49942
#	64785
#	80947
#	99941
#	119388
#	131588
#	159672
#
# Disc length: 2276 seconds
#
# Revision: 0
# Processed by: cddbd v1.5.1PL0 Copyright (c) Steve Scherf et al.
# Submitted via: CDex 1.51
#
DISCID=8508e20a
DTITLE=Ella Fitzgerald - The World of Ella Fitzgerald
DYEAR=1968
DGENRE=Jazz
TTITLE0=Night In Tunisia
TTITLE1=You're My Thrill
TTITLE2=My Reverie
TTITLE3=Stella By Starlight
TTITLE4=Jersey Bounce
TTITLE5=Cry Me A River
TTITLE6=Good Morning Heartache
TTITLE7=I Was Born To Be Blue
TTITLE8=Spring Can Really Hang You Up The Most
TTITLE9=The Music Goes 'Round and 'Round
EXTD=YEAR: 1968
EXTT0=
EXTT1=
EXTT2=
EXTT3=
EXTT4=
EXTT5=
EXTT6=
EXTT7=
EXTT8=
EXTT9=
PLAYORDER=
